<?xml version="1.0" standalone="no"?>
<!DOCTYPE svg PUBLIC "-//W3C//DTD SVG 1.1//EN" "http://www.w3.org/Graphics/SVG/1.1/DTD/svg11.dtd" >
<svg xmlns="http://www.w3.org/2000/svg" xmlns:xlink="http://www.w3.org/1999/xlink" version="1.1">
<metadata>
Created by FontForge 20170731 at Fri Jan  1 02:30:17 1904
 By Aleksey,,,
(c) 2000 Footnote Fonts
</metadata>
<defs>
<font id="FutureRot" horiz-adv-x="1070" >
  <font-face 
    font-family="Future Rot"
    font-weight="400"
    font-stretch="normal"
    units-per-em="2048"
    panose-1="0 0 0 0 0 0 0 0 0 0"
    ascent="1638"
    descent="-410"
    x-height="1445"
    cap-height="1435"
    bbox="-39 -343.189 2305 1554"
    underline-thickness="0"
    underline-position="0"
    unicode-range="U+0020-2122"
  />
<missing-glyph horiz-adv-x="1536" 
d="M256 0v1280h1024v-1280h-1024zM288 32h960v1216h-960v-1216z" />
    <glyph glyph-name=".notdef" horiz-adv-x="1536" 
d="M256 0v1280h1024v-1280h-1024zM288 32h960v1216h-960v-1216z" />
    <glyph glyph-name=".null" horiz-adv-x="0" 
 />
    <glyph glyph-name="nonmarkingreturn" horiz-adv-x="682" 
 />
    <glyph glyph-name="space" unicode=" " horiz-adv-x="905" 
 />
    <glyph glyph-name="exclam" unicode="!" horiz-adv-x="681" 
d="M258 338q229 19 265 -155q0 -128 -45 -183q-64 -37 -138 -37q-192 19 -201 183q19 137 119 192zM295 1426l201 -18q36 -37 46 -155l-19 -302q19 -348 -9 -439q-36 -46 -146 -55t-183 18q-37 37 -37 83q-9 649 19 823q9 54 128 45z" />
    <glyph glyph-name="quotedbl" unicode="&#x22;" horiz-adv-x="999" 
d="M592 1488l256 -2l32 -38l-8 -144l-32 -152l-16 -152l-40 -96l-48 -56l-96 8l-24 72l-8 104l-8 120l-24 112q-48 208 16 224zM152 1488l256 -2l32 -38l-8 -144l-32 -152l-16 -152l-40 -96l-48 -56l-96 8l-24 72l-8 104l-8 120l-24 112q-48 208 16 224z" />
    <glyph glyph-name="dollar" unicode="$" horiz-adv-x="1305" 
d="M703 430q-9 -101 18 -101l37 18q9 92 -28 119zM255 338l183 -55q82 -27 110 64q18 156 -37 238l-229 110l-91 110q-73 164 -46 219q9 0 55 229l156 155l219 91l64 55h27l83 -73l64 -27h64l164 -73l46 -74l-64 -173l-73 -37l-156 64h-73l-18 -55q-9 -73 64 -192l165 -45
l91 -92l-73 -100q-101 18 -128 -37l36 -18q256 18 302 -46q28 -73 18 -174l-45 -91l-19 -110l-82 -82l-55 -18q-36 -55 -82 -74l-165 -73q-82 -100 -128 -91h-27l-91 82l-229 92l-119 91l-9 64l82 137z" />
    <glyph glyph-name="ampersand" unicode="&#x26;" horiz-adv-x="1665" 
d="M540 430v-101l27 -27l64 -19l101 10l55 45l-19 83l-100 91l-73 -9zM704 1115l9 -64l92 -73l100 83q10 91 -91 118l-82 -9zM768 1472l174 -18l101 -64l82 -73q91 -110 82 -156l-9 -192l-18 -55l-119 -128l-28 -91q10 -82 92 -110h55l128 92q109 0 109 -37l74 -82l9 -46
l-9 -55q-110 -82 -83 -201l46 -91l101 -110l-10 -46l-64 -36l-310 36l-110 55l-37 9l-119 -46q-45 10 -237 -54h-156l-274 73l-101 137l-27 146l37 192l265 265l9 92l-28 73v55q-201 338 375 466z" />
    <glyph glyph-name="quotesingle" unicode="'" horiz-adv-x="551" 
d="M151 1488l256 -2l32 -38l-8 -144l-32 -152l-16 -152l-40 -96l-48 -56l-96 8l-24 72l-8 104l-8 120l-24 112q-48 208 16 224z" />
    <glyph glyph-name="parenleft" unicode="(" horiz-adv-x="721" 
d="M426 1525l101 -19l82 -73l18 -64l-18 -91l-55 -83l-36 -164q-37 -46 -46 -101v-91q-64 -156 -64 -247l9 -201l64 -348q28 -9 92 -210q9 -128 -174 -174q-46 -9 -55 19q-128 155 -155 274l-19 165q-45 54 -55 192q-9 338 28 566l27 46q-18 55 37 229l91 210l73 119z" />
    <glyph glyph-name="parenright" unicode=")" horiz-adv-x="721" 
d="M283 1546l82 -9l91 -137q-18 -37 74 -219l27 -192l37 -92q-28 -91 18 -247l-18 -365q-55 -138 -83 -284l-36 -36l-46 -119q-55 -55 -73 -119l-55 -46q-137 -18 -192 82l9 119q73 119 82 211q64 54 55 73q-9 128 55 402l-9 183l101 119q0 36 -37 45l-101 37l-27 146
l-46 73l-18 110q-55 92 -37 146l55 64q64 10 92 55z" />
    <glyph glyph-name="comma" unicode="," horiz-adv-x="569" 
d="M166 375l247 -9l46 -19l18 -64l-9 -219l-73 -238l-73 -73l-74 -36l-82 27v73l64 92l18 82l-155 146q0 229 73 238z" />
    <glyph glyph-name="period" unicode="." horiz-adv-x="569" 
d="M262 357q110 0 137 -37q55 -46 83 -137q9 -201 -202 -220q-118 28 -164 64l-28 119q-9 183 174 211z" />
    <glyph glyph-name="zero" unicode="0" horiz-adv-x="1406" 
d="M448 832q-18 -229 37 -347q36 -28 45 -92q0 -18 156 -82l109 9l92 82l46 137q-19 64 0 247l-28 192q-46 101 -137 137q-219 10 -229 -27q-73 -165 -91 -256zM558 1472l311 -18q201 -73 219 -110l146 -183l19 -55q73 -45 73 -128l-9 -548l-83 -174l-27 -9l-55 -64l-27 -9
l-37 -73l-82 -28q-46 -82 -311 -91q-18 -19 -210 36l-156 101l-73 64l-64 91q-128 302 -110 457q0 128 46 330q64 91 64 155l146 155z" />
    <glyph glyph-name="one" unicode="1" horiz-adv-x="886" 
d="M421 1490l237 -9q55 -27 73 -91q-9 -211 19 -348l-9 -201q36 -174 0 -786q-10 -46 -174 -64q-82 -28 -165 64l-27 960q-28 64 -101 137l-73 9l-82 64v165q55 91 82 82q128 -9 220 18z" />
    <glyph glyph-name="two" unicode="2" horiz-adv-x="1374" 
d="M585 1435q192 19 448 -45l101 -83l64 -91l64 -146v-229l-92 -201l-36 -27l-28 -55l-119 -119l-36 -82l36 -46q183 -9 266 -110v-146q-74 -73 -156 -73l-402 9l-73 18l-403 -9l-54 55l64 110l100 73l165 164q137 92 283 256l82 256v110l-27 91l64 55l-9 37l-82 -18
l-64 -74q-74 10 -174 -64l-46 -118q-110 -37 -137 45h-27l-55 -36q-156 -28 -192 64q-9 100 18 164l82 83l119 82q165 82 256 100z" />
    <glyph glyph-name="three" unicode="3" horiz-adv-x="1342" 
d="M219 475l238 -9q64 -109 100 -119q18 -27 119 -27q91 0 110 37q91 82 82 137q-9 100 -55 128l-174 82q-73 110 -45 146l18 46l64 64q64 9 101 64l18 82l-46 55l-73 46l-91 -9l-74 -101q-54 -27 -128 -18l-182 18l-37 64q18 101 73 165q128 119 265 164l329 -9l220 -110
l64 -64l82 -128l-9 -155l-91 -201l54 -119l46 -37l-18 -82l-73 -27l-119 -119v-37l-37 -27l9 -28q37 19 46 46h37q27 -46 100 -64l110 -27l-9 -83l-55 -109l-82 -37q-64 9 -211 -55h-45l-101 -36l-155 9l-83 27q-155 9 -237 55q-174 174 -165 274q-18 156 110 128z" />
    <glyph glyph-name="four" unicode="4" horiz-adv-x="1438" 
d="M555 686q-9 -28 64 -73q183 -10 301 54l-9 19q-91 18 -109 55l-28 64q18 64 -73 100l-119 -137zM820 1445h238l82 -46q27 -329 18 -741l55 -64q110 -36 110 -109q18 -64 -37 -165q-100 -18 -128 -82q-27 -64 -18 -165q-64 -91 -101 -82l-210 9l-55 82q18 156 -82 211
l-284 18l-246 27l-64 37v155l82 165l110 146l27 64l55 55l91 183l119 146l28 55l82 82z" />
    <glyph glyph-name="five" unicode="5" horiz-adv-x="1286" 
d="M146 402h73l183 -91l165 -9l91 36l110 83q0 201 -37 228l-137 92h-183q-201 -74 -219 45q27 293 91 357q-9 128 55 302q9 27 64 27l567 -9q73 0 119 -156q-18 -182 -256 -173l-101 27q-82 37 -137 -73l28 -46l247 -45l173 -138l64 -100q19 -92 46 -110q27 -119 18 -238
l-82 -182l-201 -183q-174 -28 -238 -64h-128q-155 55 -247 45q-100 28 -164 101q-19 210 36 274z" />
    <glyph glyph-name="six" unicode="6" horiz-adv-x="1462" 
d="M342 283l19 -18l36 9l-9 19zM269 795q-18 -27 110 -100l36 18q-9 101 -27 101q-73 9 -119 -19zM809 1527l164 -28l28 -36l-19 -92l-128 -137l-55 -82l-9 -82l64 -37l247 -27l92 -73l9 -83q109 -64 146 -283l-9 -101q-18 0 -73 -192l-55 -82l-165 -146q-55 9 -219 -55
q-101 -18 -375 46q-46 9 -128 91l9 119q-55 27 -82 100l27 55h174l46 19h36q0 -28 147 -101q173 9 256 174q9 82 -19 128q-82 100 -128 100l-192 -9q-27 -9 -137 -210l-82 18l-73 -18l-19 -55q-118 -55 -128 -37l-45 74l9 164l27 73l9 119l92 174l201 292l46 37l82 119
q128 64 229 64z" />
    <glyph glyph-name="seven" unicode="7" horiz-adv-x="1398" 
d="M905 1335q-9 -28 28 -110h91l55 73l46 28l-28 73q-73 27 -192 -64zM210 1454q320 -19 521 0q37 55 302 36l73 -9q9 -36 137 -36l46 -37q-18 -101 -82 -155q-18 -101 -73 -128l-37 -110l-36 -37l-37 -91q-55 -18 -73 -156l-37 -36q-27 -137 -64 -128l-45 -119l-37 -37
q-9 -64 -91 -164l-28 -82l-64 -101l-64 -55l-91 -18l-229 18v92l128 219l9 64q55 55 83 155l54 64l19 64l91 128q110 -36 146 110l-36 64q9 101 -18 156l-37 27l-101 18l-356 -9q-73 0 -73 73l18 183l18 18z" />
    <glyph glyph-name="eight" unicode="8" horiz-adv-x="1334" 
d="M516 1143l9 -101l83 -73q119 0 183 110v64l-55 91l-55 19q-37 9 -119 -28zM498 485q-18 -10 37 -165q18 -37 118 -55q110 9 119 28l64 91q9 155 -173 210l-83 -9zM644 1518l238 -9l82 -83l-64 -137q-18 -18 46 -91l155 36l37 -73l-9 -174l-28 -73l-54 -82v-82l73 -73
l82 -147q37 -146 -37 -356l-155 -101q-37 -82 -256 -91q-192 0 -384 45l-183 147l-9 73q-82 82 -64 100q-9 119 27 238l64 101l74 82l-19 73l-73 82q-36 83 -36 156q18 164 45 210l101 110q119 91 347 119z" />
    <glyph glyph-name="nine" unicode="9" horiz-adv-x="1414" 
d="M448 997q-9 -119 27 -165l92 -101l64 -27q110 9 119 27q109 101 155 174q9 165 -55 220q-119 54 -210 54q-110 -18 -192 -182zM777 1499q101 -45 229 -54l173 -156q37 -36 119 -228l-18 -183l-55 -220q-64 -91 -64 -119l-55 -54l-91 -165l-73 -73l-147 -210
q-27 -55 -274 -46l-100 9l-28 27l18 83l37 27q18 64 146 201l-9 64l-18 19l-174 45l-128 73q-36 92 -9 101l119 128q18 82 0 91l-82 83l-110 36q9 19 -64 83v82l36 46q19 82 46 100q183 165 220 156z" />
    <glyph glyph-name="colon" unicode=":" horiz-adv-x="569" 
d="M262 503q109 0 137 -37q55 -45 82 -137q9 -201 -201 -219q-119 27 -165 64l-27 119q-9 182 174 210zM262 1006q109 0 137 -37q55 -46 82 -137q9 -201 -201 -219q-119 27 -165 64l-27 118q-9 183 174 211z" />
    <glyph glyph-name="semicolon" unicode=";" horiz-adv-x="630" 
d="M223 375l247 -9l46 -19l18 -64l-9 -219l-73 -238l-73 -73l-74 -36l-82 27v73l64 92l18 82l-155 146q0 229 73 238zM324 1006q164 -19 210 -147l-9 -146q-128 -119 -146 -100q-119 -10 -156 27q-100 73 -91 119q-37 201 192 247z" />
    <glyph glyph-name="question" unicode="?" horiz-adv-x="1217" 
d="M504 375h73l101 -73q64 -83 64 -137l-19 -83l-73 -91l-73 -18q-46 -10 -155 27l-73 119q-28 46 64 201zM522 1435q192 19 339 -36l36 -156l55 -36l64 18l37 -82q54 -28 45 -101l-9 -100q-46 -46 -55 -137l-82 -92l-119 -73l-64 -64q-18 -110 -146 -110q-192 -18 -229 73
l9 266l28 27q201 9 265 128l9 82l-46 83l-82 18q-46 0 -146 -110l-238 -18q-73 18 -82 73l18 91l64 101q128 165 329 155z" />
    <glyph glyph-name="A" unicode="A" horiz-adv-x="1590" 
d="M679 658l9 -82l55 -37q91 -9 164 101q9 91 -64 238q-64 9 -91 -19l-55 -182zM624 1435q384 37 439 -82q73 -155 192 -503q36 -18 118 -292q10 -101 -27 -201l73 -37l82 -192q37 -82 -82 -128q-210 -9 -228 18l-74 73q-45 110 -64 110q-91 55 -155 46l-137 -37l-9 9
l-211 -9l-137 -192l-100 -27q-211 -28 -229 55l28 183l36 54l220 558l36 128l18 18l101 357q37 64 110 91z" />
    <glyph glyph-name="B" unicode="B" horiz-adv-x="1310" 
d="M530 1051l9 -73l64 -55q37 0 119 83q9 109 -55 119q-137 0 -137 -74zM521 503q-9 -165 18 -183l64 -27q74 -10 119 18q64 46 92 100l18 83l18 9l-82 73q-210 18 -247 -73zM384 1445q402 18 539 -46l128 -92q37 -18 83 -192q27 -36 -101 -329q55 -109 37 -119l18 -18
q-73 0 -119 -36l-27 -37l36 -73l147 -18l82 -83q18 -27 0 -119l-92 -146q-182 -164 -621 -155l-311 27l-37 46v27l101 73l55 64l-137 74l-55 73q-19 183 9 503l-9 402q27 146 64 155z" />
    <glyph glyph-name="C" unicode="C" horiz-adv-x="1342" 
d="M739 1481q46 -18 265 0q220 -64 220 -164l-9 -192q0 -28 -83 -28q-247 73 -420 0q-119 -64 -183 -311q-18 -55 36 -256q74 -137 119 -164l165 -55q82 -28 347 64l46 -64q18 -156 -46 -238q-91 -55 -338 -82h-119q-265 55 -283 82q-156 82 -238 238q-137 302 -101 356
q-18 192 46 339q146 283 265 347q192 101 311 128z" />
    <glyph glyph-name="D" unicode="D" horiz-adv-x="1454" 
d="M475 914l10 -429l36 -74l55 -45q293 0 347 256q55 457 -265 530l-91 -18l-73 -73zM219 1472l531 -9l219 -64l46 -37l110 -55l146 -164q73 -119 73 -247q9 -247 -27 -421l-74 -146l-73 -91q-210 -165 -283 -183l-284 -64l-329 18q-91 -36 -155 46l-28 302l10 978
q18 155 118 137z" />
    <glyph glyph-name="E" unicode="E" 
d="M274 1463l613 -9l18 -19l28 -91v-119l-46 -64l-293 -27q-64 -55 -55 -147l55 -73q293 -18 293 -55q36 -109 0 -219q0 -46 -293 -55q-82 -110 -55 -192q46 -91 101 -91l247 9q100 -37 91 -119l-9 -146q0 -19 -82 -46l-265 -9h-366q-91 18 -110 73l-18 247l9 100l-18 202
q-18 484 0 530l-18 146q18 146 45 156z" />
    <glyph glyph-name="F" unicode="F" 
d="M576 1518h128q37 -37 219 -37l19 -18l18 -64l-9 -156q0 -54 -375 -82q-82 -36 -55 -201l-100 -192q-37 0 -37 -110l82 -64h37q27 37 27 83l110 100l37 119q201 46 210 -64l-9 -174q0 -55 -265 -45l-92 -64l-36 -485q-74 -73 -119 -73q-192 0 -238 82v247l-18 46l-9 228
v412l36 173q-46 64 -27 238l64 73l338 9z" />
    <glyph glyph-name="G" unicode="G" horiz-adv-x="1702" 
d="M764 1509q265 9 420 -64l183 -92q18 -55 73 -82l18 -55l-18 -73q-9 -28 -210 -101l-210 101q-174 36 -247 36q-46 0 -174 -118l-82 -220q-9 -155 18 -283q55 -119 183 -201l201 -55q110 27 146 64l64 100l-18 46l-37 37q-265 0 -164 292q18 37 292 37q238 9 320 -28
l64 -73l10 -73q-10 -137 -55 -229q9 -27 -28 -128l-64 -100l-164 -165l-229 -64l-55 -27q-73 -9 -320 27l-274 110q-119 101 -165 174l-27 64l-27 27q-55 201 -83 229v210l73 265l83 110l109 110q19 45 46 54l37 10q82 100 311 128z" />
    <glyph glyph-name="H" unicode="H" horiz-adv-x="1534" 
d="M393 1435q46 19 128 -36l28 -412l9 -27l45 -37q357 -27 384 19l46 228q-9 265 64 284q229 45 311 -64l18 -613q9 -265 -27 -704l-82 -73l-138 -18l-91 18l-37 73l-18 366q-27 91 -91 146l-64 9q-275 0 -302 -36l-27 -55l-10 -402q0 -74 -109 -110l-220 9l-64 64l28 174
q-37 55 -46 265l-9 768q9 210 274 164z" />
    <glyph glyph-name="I" unicode="I" horiz-adv-x="686" 
d="M274 1435l165 -9l73 -36q46 -37 55 -997q9 -311 -28 -366q-45 -36 -128 -36q-228 -18 -228 82l-28 777l-27 348q-18 228 146 237z" />
    <glyph glyph-name="J" unicode="J" 
d="M274 357l156 -55l82 45l27 46v476q-45 237 -27 484l55 110l210 36l101 -45q55 -19 73 -476q-18 -484 0 -594l-82 -219l-74 -74l-146 -73q-128 -9 -146 -27h-156l-219 100l-27 83q82 183 173 183z" />
    <glyph glyph-name="K" unicode="K" horiz-adv-x="1502" 
d="M192 969q9 -82 64 -137q110 18 119 46l82 155l-18 37l-92 27l-100 -46zM219 1435l211 -18q27 0 64 -82l-9 -9l9 -302l55 -82q73 18 118 73l74 82l91 165l82 100h55q0 64 28 55v-55q-55 -27 -10 -137h83l109 165q-18 82 92 91q91 -18 100 -73q-54 -73 -82 -146l-55 -55
l-91 -165l-110 -137q-110 -155 -73 -238l119 -118l119 -183l91 -64l156 -220l-74 -36q-91 0 -146 -37h-155l-83 55l-128 146l-27 9l-27 46l-183 192q-73 18 -83 0q28 -174 -18 -393q-27 -73 -100 -73h-174l-64 18l-37 128q9 320 -27 430v283l46 119l-55 82q-19 19 0 293
l55 73z" />
    <glyph glyph-name="L" unicode="L" horiz-adv-x="1054" 
d="M256 1445q210 18 229 -46l18 -82l9 -842q9 -109 101 -146l310 -18l28 -110l-9 -146l-37 -37q-73 -27 -484 -27l-238 18l-28 28l-27 137q18 292 -9 475q46 165 27 220q-55 283 -36 429q55 183 146 147z" />
    <glyph glyph-name="M" unicode="M" horiz-adv-x="2062" 
d="M475 1454h183l83 -46q18 -91 73 -146l36 -128q28 -9 92 -201l82 -110l119 238l82 338l82 64q74 -9 156 27q183 0 247 -73l18 -110q18 0 46 -109l-9 -9l18 -202l64 -155q-9 -55 55 -265q18 -412 45 -485l-36 -73l-128 -18q-192 18 -192 46q-55 173 -37 201q-45 45 -64 247
q28 109 -27 265q-64 -28 -101 -101q-9 -82 -82 -247l-18 -91q-64 -110 -92 -229q-64 -91 -100 -73l-119 9l-183 366l-27 110l-83 183l-18 9l-46 -37q-18 0 -82 -548l-46 -92q-100 -73 -265 -46q-91 19 -82 46l9 393q55 147 73 595l37 118q-9 202 55 293q36 37 182 46z" />
    <glyph glyph-name="N" unicode="N" horiz-adv-x="1694" 
d="M238 1445q137 9 237 -19l92 -91l9 -28l128 -118l18 -46l284 -311q9 -73 128 -119l27 73l18 174q-18 183 0 448q28 64 174 64l146 -18q74 -55 74 -119l-19 -82q28 -37 19 -101l9 -631l-19 -100l19 -174l-19 -183l-54 -55l-138 -27q-109 -9 -182 18l-156 155
q18 28 -110 174l-27 18l-91 138l-55 36l-137 174l-74 46l-36 -138q9 -548 -37 -594q-55 -27 -256 -18q-64 9 -91 91q9 192 -18 211l36 484l-18 28l-18 228v320q82 119 137 92z" />
    <glyph glyph-name="O" unicode="O" horiz-adv-x="1774" 
d="M512 768v-165l91 -164l119 -82l110 -46l238 55l109 91q37 64 92 210q-18 211 -46 238q-46 82 -174 201l-201 83l-64 -28l-119 -100q-100 -92 -91 -110zM1536 768l27 -18l19 9l-9 18zM768 1463q192 18 411 -37l247 -128l156 -183l18 -64q55 -64 73 -137l9 -137
q19 -27 -36 -311q-19 0 -73 -155l-156 -165l-192 -128l-228 -36l-348 18l-110 27q0 19 -146 83l-82 64q-9 45 -92 128q-54 82 -118 320l-10 128q28 301 174 457l201 174q220 91 302 82z" />
    <glyph glyph-name="P" unicode="P" horiz-adv-x="1350" 
d="M274 1106q28 -119 101 -164l247 -137q128 0 192 118v110l-46 46q-27 36 -210 46l-73 109l-74 37q-118 -28 -137 -165zM640 1463h82l265 -55l110 -73l64 -64q9 -55 55 -82l27 -92l-9 -292l-91 -147q-128 -91 -265 -146l-211 -18q-100 -9 -137 -101q-27 -164 -18 -338
l-27 -55l-55 -9q-311 -28 -284 137l9 101l-27 960l-18 82l9 64l73 82l338 18z" />
    <glyph glyph-name="Q" unicode="Q" horiz-adv-x="1766" 
d="M512 777l18 -174l83 -128q118 -109 173 -91l73 18l37 37q9 9 -64 73l-27 73q36 82 192 92l164 -28l55 73v101l-18 27q-9 256 -320 302q-320 -18 -366 -375zM777 1499q229 10 338 -27l74 -46l109 -36l101 -73l137 -147q128 -210 110 -356l-19 -92q10 -155 -18 -274
q-73 -73 -82 -155q9 -37 137 -220q-64 -73 -174 -82q-109 -9 -173 64l-110 18l-137 -46l-256 -36l-101 9l-36 27l-202 55l-128 73q-292 394 -256 503q-9 165 28 366q55 55 73 146l82 110q137 146 503 219z" />
    <glyph glyph-name="R" unicode="R" horiz-adv-x="1406" 
d="M511 1033l9 -155l46 -55q110 -9 146 27l55 101q-18 146 -110 164h-100zM529 1463q302 18 494 -110q183 -192 155 -274l-27 -229l-64 -36q-91 18 -110 0q-64 -92 -109 -110q-92 18 -147 -37v-82l46 -27l119 27q46 9 119 -100l155 -211l73 -73q-9 -18 64 -119
q0 -82 -73 -91l-274 9l-119 82q-55 73 -82 156l-119 119l-73 45l-19 -27l-18 -311q0 -73 -119 -73h-192q-45 18 -55 146q0 430 -45 786q18 119 0 421q18 73 73 82l238 9z" />
    <glyph glyph-name="S" unicode="S" horiz-adv-x="1230" 
d="M249 393q73 -64 320 -64q82 18 110 110l-18 91q-10 28 -348 137l-146 147q-28 64 -18 338l18 73l100 137l83 55q119 55 247 73h137q137 -27 201 -64l82 -82l-18 -91l-37 -28l-36 -73q-64 -18 -229 46q-174 -55 -137 -147l64 -82l229 -73l201 -146q45 -28 55 -211
q9 -182 -28 -256l-82 -128l-64 -73l-146 -73l-165 -18q-119 -9 -302 27l-146 73l-64 74v82l37 36q27 92 100 110z" />
    <glyph glyph-name="T" unicode="T" horiz-adv-x="1230" 
d="M336 1445l713 -10q73 -27 73 -91l-9 -146q-37 -83 -229 -64l-45 -83l-10 -969l-64 -73l-64 -18l-192 9q-36 37 -45 119l9 119l-18 36l-28 695q-9 101 -55 128l-219 55q-46 82 -28 201l28 64z" />
    <glyph glyph-name="U" unicode="U" horiz-adv-x="1550" 
d="M217 1472q311 0 329 -73l18 -521l-9 -220l64 -228q9 -19 165 -83l110 10l100 64l28 182l-10 448l19 83l-19 128l10 137q82 119 128 91q128 -18 182 0q101 -18 101 -82l9 -329q-18 -201 0 -357l-18 -292l-92 -220l-118 -128q-28 -82 -64 -64l-339 -36l-247 18
q-164 55 -265 146l-91 137q-82 192 -92 430l28 247q-37 37 0 448z" />
    <glyph glyph-name="V" unicode="V" horiz-adv-x="1670" 
d="M199 1435q247 10 311 -27q64 -73 92 -219l-19 -28q-64 -18 -128 37l-91 -73l18 -92l229 64l73 -36l36 -110l55 -73q28 -137 64 -137l92 118l100 284l37 36q36 220 128 266q283 18 302 0l64 -37l-74 -256l-36 -46l-18 -82l-19 -18l-228 -9q-55 -37 -73 -110l54 -128
l101 -37l18 -73l-27 -46q9 -137 -92 -210l-45 -155l-46 -73l-37 -110l-64 -55l-45 -9q-229 -37 -265 73q0 37 -83 155q0 83 -36 138l-28 36l-100 274q-28 10 -128 238l-28 128q-45 46 -128 284q-27 118 64 118z" />
    <glyph glyph-name="W" unicode="W" horiz-adv-x="2398" 
d="M888 722l9 -18l64 -18q9 -9 37 27l-19 28zM449 1481l101 -18q-19 -156 9 -238l64 -110l27 -182l101 -183l36 27l19 101l55 82l27 128q55 55 82 219l73 119q83 37 156 37l73 -9l146 -211l28 -128l45 -36q19 -146 46 -183q46 -37 55 -110l46 -45l36 36q64 320 247 649
l274 28l92 -46l18 -27l-55 -138l-109 -356q-19 -18 -74 -192l-36 -55l-28 -146l-45 -64q0 -55 -73 -183l-28 -119l-36 -37q-10 -73 -92 -109h-174l-82 45q-91 192 -110 311q-91 165 -155 366l37 46q82 9 137 91l64 174l-46 36q-18 110 -46 110l-91 28l-64 64l-73 18l-92 -37
l-9 -73l55 -91l27 -137l-9 -83q110 -137 73 -164l-155 -348l-27 -137l-83 -164l-73 -46q-64 -9 -228 27q-74 73 -83 110l-36 155l-46 74l-9 64q-82 164 -92 256l-64 118l-9 83l-45 91l-19 119q-36 27 -109 274l45 92l73 18z" />
    <glyph glyph-name="X" unicode="X" horiz-adv-x="1670" 
d="M223 1435q292 10 320 -27l64 -55l36 -64l101 -110l82 -9l183 247q55 73 292 46l101 -9l27 -55v-37q-82 -91 -91 -155q-27 0 -91 -146l-28 -19q-64 -109 -137 -183l-18 -91l27 -64l174 -201l27 -64l37 -18l36 -101l37 -18l18 -55q156 -174 128 -192l-155 -37
q-183 -18 -293 46l-36 64l-183 210l-73 46l-110 -91l-155 -247l-101 -64q-183 -19 -329 0l-18 64l45 109l55 55l28 64l100 119l37 82l128 165q36 101 0 210l-220 320q-45 19 -128 192q0 55 83 73z" />
    <glyph glyph-name="Y" unicode="Y" horiz-adv-x="1510" 
d="M147 1454h320l55 -19l9 -27l64 -55q110 -183 156 -192l64 9l210 275q174 18 375 0l18 -64v-28l-55 -64l-27 -82l-64 -64l-274 -448l-19 -238q19 -110 0 -402q0 -46 -82 -64l-238 9l-45 37l-19 73l10 183q-37 128 -10 192l-18 36q-9 183 -27 210l-46 37l-91 165l-64 54
l-83 174l-64 46l-91 146q-18 92 36 101z" />
    <glyph glyph-name="Z" unicode="Z" horiz-adv-x="1462" 
d="M484 393l9 -18h9v18h-18zM338 1481l493 -9l92 -9l9 -55v-9h82q-18 91 82 82l220 -27l55 -37q-28 -9 -64 -128l-192 -274l-19 -55l-45 -46l-37 -91l-201 -320q-64 -28 -55 -128q0 -37 220 -55l100 -110l238 -18l18 -18l9 -83l-36 -73l-211 -36q-329 18 -685 0l-284 18
l-36 18v83l36 82l37 36l18 55q64 73 92 156l54 64l10 45l137 202l146 265l27 119l-54 18q-366 0 -403 46l-27 100l9 128l27 37z" />
    <glyph glyph-name="a" unicode="a" horiz-adv-x="1590" 
d="M679 658l9 -82l55 -37q91 -9 164 101q9 91 -64 238q-64 9 -91 -19l-55 -182zM624 1435q384 37 439 -82q73 -155 192 -503q36 -18 118 -292q10 -101 -27 -201l73 -37l82 -192q37 -82 -82 -128q-210 -9 -228 18l-74 73q-45 110 -64 110q-91 55 -155 46l-137 -37l-9 9
l-211 -9l-137 -192l-100 -27q-211 -28 -229 55l28 183l36 54l220 558l36 128l18 18l101 357q37 64 110 91z" />
    <glyph glyph-name="b" unicode="b" horiz-adv-x="1310" 
d="M530 1051l9 -73l64 -55q37 0 119 83q9 109 -55 119q-137 0 -137 -74zM521 503q-9 -165 18 -183l64 -27q74 -10 119 18q64 46 92 100l18 83l18 9l-82 73q-210 18 -247 -73zM384 1445q402 18 539 -46l128 -92q37 -18 83 -192q27 -36 -101 -329q55 -109 37 -119l18 -18
q-73 0 -119 -36l-27 -37l36 -73l147 -18l82 -83q18 -27 0 -119l-92 -146q-182 -164 -621 -155l-311 27l-37 46v27l101 73l55 64l-137 74l-55 73q-19 183 9 503l-9 402q27 146 64 155z" />
    <glyph glyph-name="c" unicode="c" horiz-adv-x="1342" 
d="M739 1481q46 -18 265 0q220 -64 220 -164l-9 -192q0 -28 -83 -28q-247 73 -420 0q-119 -64 -183 -311q-18 -55 36 -256q74 -137 119 -164l165 -55q82 -28 347 64l46 -64q18 -156 -46 -238q-91 -55 -338 -82h-119q-265 55 -283 82q-156 82 -238 238q-137 302 -101 356
q-18 192 46 339q146 283 265 347q192 101 311 128z" />
    <glyph glyph-name="d" unicode="d" horiz-adv-x="1454" 
d="M475 914l10 -429l36 -74l55 -45q293 0 347 256q55 457 -265 530l-91 -18l-73 -73zM219 1472l531 -9l219 -64l46 -37l110 -55l146 -164q73 -119 73 -247q9 -247 -27 -421l-74 -146l-73 -91q-210 -165 -283 -183l-284 -64l-329 18q-91 -36 -155 46l-28 302l10 978
q18 155 118 137z" />
    <glyph glyph-name="e" unicode="e" 
d="M274 1463l613 -9l18 -19l28 -91v-119l-46 -64l-293 -27q-64 -55 -55 -147l55 -73q293 -18 293 -55q36 -109 0 -219q0 -46 -293 -55q-82 -110 -55 -192q46 -91 101 -91l247 9q100 -37 91 -119l-9 -146q0 -19 -82 -46l-265 -9h-366q-91 18 -110 73l-18 247l9 100l-18 202
q-18 484 0 530l-18 146q18 146 45 156z" />
    <glyph glyph-name="f" unicode="f" 
d="M576 1518h128q37 -37 219 -37l19 -18l18 -64l-9 -156q0 -54 -375 -82q-82 -36 -55 -201l-100 -192q-37 0 -37 -110l82 -64h37q27 37 27 83l110 100l37 119q201 46 210 -64l-9 -174q0 -55 -265 -45l-92 -64l-36 -485q-74 -73 -119 -73q-192 0 -238 82v247l-18 46l-9 228
v412l36 173q-46 64 -27 238l64 73l338 9z" />
    <glyph glyph-name="g" unicode="g" horiz-adv-x="1702" 
d="M764 1509q265 9 420 -64l183 -92q18 -55 73 -82l18 -55l-18 -73q-9 -28 -210 -101l-210 101q-174 36 -247 36q-46 0 -174 -118l-82 -220q-9 -155 18 -283q55 -119 183 -201l201 -55q110 27 146 64l64 100l-18 46l-37 37q-265 0 -164 292q18 37 292 37q238 9 320 -28
l64 -73l10 -73q-10 -137 -55 -229q9 -27 -28 -128l-64 -100l-164 -165l-229 -64l-55 -27q-73 -9 -320 27l-274 110q-119 101 -165 174l-27 64l-27 27q-55 201 -83 229v210l73 265l83 110l109 110q19 45 46 54l37 10q82 100 311 128z" />
    <glyph glyph-name="h" unicode="h" horiz-adv-x="1534" 
d="M393 1435q46 19 128 -36l28 -412l9 -27l45 -37q357 -27 384 19l46 228q-9 265 64 284q229 45 311 -64l18 -613q9 -265 -27 -704l-82 -73l-138 -18l-91 18l-37 73l-18 366q-27 91 -91 146l-64 9q-275 0 -302 -36l-27 -55l-10 -402q0 -74 -109 -110l-220 9l-64 64l28 174
q-37 55 -46 265l-9 768q9 210 274 164z" />
    <glyph glyph-name="i" unicode="i" horiz-adv-x="686" 
d="M274 1435l165 -9l73 -36q46 -37 55 -997q9 -311 -28 -366q-45 -36 -128 -36q-228 -18 -228 82l-28 777l-27 348q-18 228 146 237z" />
    <glyph glyph-name="j" unicode="j" 
d="M274 357l156 -55l82 45l27 46v476q-45 237 -27 484l55 110l210 36l101 -45q55 -19 73 -476q-18 -484 0 -594l-82 -219l-74 -74l-146 -73q-128 -9 -146 -27h-156l-219 100l-27 83q82 183 173 183z" />
    <glyph glyph-name="k" unicode="k" horiz-adv-x="1502" 
d="M192 969q9 -82 64 -137q110 18 119 46l82 155l-18 37l-92 27l-100 -46zM219 1435l211 -18q27 0 64 -82l-9 -9l9 -302l55 -82q73 18 118 73l74 82l91 165l82 100h55q0 64 28 55v-55q-55 -27 -10 -137h83l109 165q-18 82 92 91q91 -18 100 -73q-54 -73 -82 -146l-55 -55
l-91 -165l-110 -137q-110 -155 -73 -238l119 -118l119 -183l91 -64l156 -220l-74 -36q-91 0 -146 -37h-155l-83 55l-128 146l-27 9l-27 46l-183 192q-73 18 -83 0q28 -174 -18 -393q-27 -73 -100 -73h-174l-64 18l-37 128q9 320 -27 430v283l46 119l-55 82q-19 19 0 293
l55 73z" />
    <glyph glyph-name="l" unicode="l" horiz-adv-x="1054" 
d="M256 1445q210 18 229 -46l18 -82l9 -842q9 -109 101 -146l310 -18l28 -110l-9 -146l-37 -37q-73 -27 -484 -27l-238 18l-28 28l-27 137q18 292 -9 475q46 165 27 220q-55 283 -36 429q55 183 146 147z" />
    <glyph glyph-name="m" unicode="m" horiz-adv-x="2062" 
d="M475 1454h183l83 -46q18 -91 73 -146l36 -128q28 -9 92 -201l82 -110l119 238l82 338l82 64q74 -9 156 27q183 0 247 -73l18 -110q18 0 46 -109l-9 -9l18 -202l64 -155q-9 -55 55 -265q18 -412 45 -485l-36 -73l-128 -18q-192 18 -192 46q-55 173 -37 201q-45 45 -64 247
q28 109 -27 265q-64 -28 -101 -101q-9 -82 -82 -247l-18 -91q-64 -110 -92 -229q-64 -91 -100 -73l-119 9l-183 366l-27 110l-83 183l-18 9l-46 -37q-18 0 -82 -548l-46 -92q-100 -73 -265 -46q-91 19 -82 46l9 393q55 147 73 595l37 118q-9 202 55 293q36 37 182 46z" />
    <glyph glyph-name="n" unicode="n" horiz-adv-x="1694" 
d="M238 1445q137 9 237 -19l92 -91l9 -28l128 -118l18 -46l284 -311q9 -73 128 -119l27 73l18 174q-18 183 0 448q28 64 174 64l146 -18q74 -55 74 -119l-19 -82q28 -37 19 -101l9 -631l-19 -100l19 -174l-19 -183l-54 -55l-138 -27q-109 -9 -182 18l-156 155
q18 28 -110 174l-27 18l-91 138l-55 36l-137 174l-74 46l-36 -138q9 -548 -37 -594q-55 -27 -256 -18q-64 9 -91 91q9 192 -18 211l36 484l-18 28l-18 228v320q82 119 137 92z" />
    <glyph glyph-name="o" unicode="o" horiz-adv-x="1774" 
d="M512 768v-165l91 -164l119 -82l110 -46l238 55l109 91q37 64 92 210q-18 211 -46 238q-46 82 -174 201l-201 83l-64 -28l-119 -100q-100 -92 -91 -110zM1536 768l27 -18l19 9l-9 18zM768 1463q192 18 411 -37l247 -128l156 -183l18 -64q55 -64 73 -137l9 -137
q19 -27 -36 -311q-19 0 -73 -155l-156 -165l-192 -128l-228 -36l-348 18l-110 27q0 19 -146 83l-82 64q-9 45 -92 128q-54 82 -118 320l-10 128q28 301 174 457l201 174q220 91 302 82z" />
    <glyph glyph-name="p" unicode="p" horiz-adv-x="1350" 
d="M274 1106q28 -119 101 -164l247 -137q128 0 192 118v110l-46 46q-27 36 -210 46l-73 109l-74 37q-118 -28 -137 -165zM640 1463h82l265 -55l110 -73l64 -64q9 -55 55 -82l27 -92l-9 -292l-91 -147q-128 -91 -265 -146l-211 -18q-100 -9 -137 -101q-27 -164 -18 -338
l-27 -55l-55 -9q-311 -28 -284 137l9 101l-27 960l-18 82l9 64l73 82l338 18z" />
    <glyph glyph-name="q" unicode="q" horiz-adv-x="1766" 
d="M512 777l18 -174l83 -128q118 -109 173 -91l73 18l37 37q9 9 -64 73l-27 73q36 82 192 92l164 -28l55 73v101l-18 27q-9 256 -320 302q-320 -18 -366 -375zM777 1499q229 10 338 -27l74 -46l109 -36l101 -73l137 -147q128 -210 110 -356l-19 -92q10 -155 -18 -274
q-73 -73 -82 -155q9 -37 137 -220q-64 -73 -174 -82q-109 -9 -173 64l-110 18l-137 -46l-256 -36l-101 9l-36 27l-202 55l-128 73q-292 394 -256 503q-9 165 28 366q55 55 73 146l82 110q137 146 503 219z" />
    <glyph glyph-name="r" unicode="r" horiz-adv-x="1406" 
d="M511 1033l9 -155l46 -55q110 -9 146 27l55 101q-18 146 -110 164h-100zM529 1463q302 18 494 -110q183 -192 155 -274l-27 -229l-64 -36q-91 18 -110 0q-64 -92 -109 -110q-92 18 -147 -37v-82l46 -27l119 27q46 9 119 -100l155 -211l73 -73q-9 -18 64 -119
q0 -82 -73 -91l-274 9l-119 82q-55 73 -82 156l-119 119l-73 45l-19 -27l-18 -311q0 -73 -119 -73h-192q-45 18 -55 146q0 430 -45 786q18 119 0 421q18 73 73 82l238 9z" />
    <glyph glyph-name="s" unicode="s" horiz-adv-x="1230" 
d="M249 393q73 -64 320 -64q82 18 110 110l-18 91q-10 28 -348 137l-146 147q-28 64 -18 338l18 73l100 137l83 55q119 55 247 73h137q137 -27 201 -64l82 -82l-18 -91l-37 -28l-36 -73q-64 -18 -229 46q-174 -55 -137 -147l64 -82l229 -73l201 -146q45 -28 55 -211
q9 -182 -28 -256l-82 -128l-64 -73l-146 -73l-165 -18q-119 -9 -302 27l-146 73l-64 74v82l37 36q27 92 100 110z" />
    <glyph glyph-name="t" unicode="t" horiz-adv-x="1230" 
d="M336 1445l713 -10q73 -27 73 -91l-9 -146q-37 -83 -229 -64l-45 -83l-10 -969l-64 -73l-64 -18l-192 9q-36 37 -45 119l9 119l-18 36l-28 695q-9 101 -55 128l-219 55q-46 82 -28 201l28 64z" />
    <glyph glyph-name="u" unicode="u" horiz-adv-x="1550" 
d="M217 1472q311 0 329 -73l18 -521l-9 -220l64 -228q9 -19 165 -83l110 10l100 64l28 182l-10 448l19 83l-19 128l10 137q82 119 128 91q128 -18 182 0q101 -18 101 -82l9 -329q-18 -201 0 -357l-18 -292l-92 -220l-118 -128q-28 -82 -64 -64l-339 -36l-247 18
q-164 55 -265 146l-91 137q-82 192 -92 430l28 247q-37 37 0 448z" />
    <glyph glyph-name="v" unicode="v" horiz-adv-x="1670" 
d="M199 1435q247 10 311 -27q64 -73 92 -219l-19 -28q-64 -18 -128 37l-91 -73l18 -92l229 64l73 -36l36 -110l55 -73q28 -137 64 -137l92 118l100 284l37 36q36 220 128 266q283 18 302 0l64 -37l-74 -256l-36 -46l-18 -82l-19 -18l-228 -9q-55 -37 -73 -110l54 -128
l101 -37l18 -73l-27 -46q9 -137 -92 -210l-45 -155l-46 -73l-37 -110l-64 -55l-45 -9q-229 -37 -265 73q0 37 -83 155q0 83 -36 138l-28 36l-100 274q-28 10 -128 238l-28 128q-45 46 -128 284q-27 118 64 118z" />
    <glyph glyph-name="w" unicode="w" horiz-adv-x="2398" 
d="M888 722l9 -18l64 -18q9 -9 37 27l-19 28zM449 1481l101 -18q-19 -156 9 -238l64 -110l27 -182l101 -183l36 27l19 101l55 82l27 128q55 55 82 219l73 119q83 37 156 37l73 -9l146 -211l28 -128l45 -36q19 -146 46 -183q46 -37 55 -110l46 -45l36 36q64 320 247 649
l274 28l92 -46l18 -27l-55 -138l-109 -356q-19 -18 -74 -192l-36 -55l-28 -146l-45 -64q0 -55 -73 -183l-28 -119l-36 -37q-10 -73 -92 -109h-174l-82 45q-91 192 -110 311q-91 165 -155 366l37 46q82 9 137 91l64 174l-46 36q-18 110 -46 110l-91 28l-64 64l-73 18l-92 -37
l-9 -73l55 -91l27 -137l-9 -83q110 -137 73 -164l-155 -348l-27 -137l-83 -164l-73 -46q-64 -9 -228 27q-74 73 -83 110l-36 155l-46 74l-9 64q-82 164 -92 256l-64 118l-9 83l-45 91l-19 119q-36 27 -109 274l45 92l73 18z" />
    <glyph glyph-name="x" unicode="x" horiz-adv-x="1670" 
d="M223 1435q292 10 320 -27l64 -55l36 -64l101 -110l82 -9l183 247q55 73 292 46l101 -9l27 -55v-37q-82 -91 -91 -155q-27 0 -91 -146l-28 -19q-64 -109 -137 -183l-18 -91l27 -64l174 -201l27 -64l37 -18l36 -101l37 -18l18 -55q156 -174 128 -192l-155 -37
q-183 -18 -293 46l-36 64l-183 210l-73 46l-110 -91l-155 -247l-101 -64q-183 -19 -329 0l-18 64l45 109l55 55l28 64l100 119l37 82l128 165q36 101 0 210l-220 320q-45 19 -128 192q0 55 83 73z" />
    <glyph glyph-name="y" unicode="y" horiz-adv-x="1510" 
d="M147 1454h320l55 -19l9 -27l64 -55q110 -183 156 -192l64 9l210 275q174 18 375 0l18 -64v-28l-55 -64l-27 -82l-64 -64l-274 -448l-19 -238q19 -110 0 -402q0 -46 -82 -64l-238 9l-45 37l-19 73l10 183q-37 128 -10 192l-18 36q-9 183 -27 210l-46 37l-91 165l-64 54
l-83 174l-64 46l-91 146q-18 92 36 101z" />
    <glyph glyph-name="z" unicode="z" horiz-adv-x="1462" 
d="M484 393l9 -18h9v18h-18zM338 1481l493 -9l92 -9l9 -55v-9h82q-18 91 82 82l220 -27l55 -37q-28 -9 -64 -128l-192 -274l-19 -55l-45 -46l-37 -91l-201 -320q-64 -28 -55 -128q0 -37 220 -55l100 -110l238 -18l18 -18l9 -83l-36 -73l-211 -36q-329 18 -685 0l-284 18
l-36 18v83l36 82l37 36l18 55q64 73 92 156l54 64l10 45l137 202l146 265l27 119l-54 18q-366 0 -403 46l-27 100l9 128l27 37z" />
    <glyph glyph-name="uni00A0" unicode="&#xa0;" horiz-adv-x="1512" 
d="M111 836h134q32 -16 96 4l39 75v60q-12 47 -55 51l-24 -8q-40 -47 -52 -79h-11v-12l-40 -28q-87 -12 -107 40l20 67l20 28l4 20l27 43l28 64l51 55l28 40l24 12q20 23 44 35l7 16l100 48q27 8 39 -32v-1165l-4 -15l-16 -16q-47 0 -75 31l-8 16v400l-32 68l-39 27l-36 12
h-186l-16 16l4 103h8l4 12zM626 1426l24 -4l15 -20l76 -348l8 -8l7 -40l32 -67q44 -20 56 28l19 115v324q8 24 64 16l16 -12l23 -47v-1220l-19 -44q-12 -24 -60 -20q-43 4 -39 24q-8 67 -48 198l-4 44l-8 8l-16 83q-20 8 -43 127q-36 27 -56 -12l-23 -127v-325
q-8 -24 -64 -16l-16 12l-23 48v1220l19 43q12 24 60 20zM1050 1367l43 -8l20 -16l51 -24l56 -51l40 -28l11 -24l52 -55q95 -179 99 -214q-12 -32 -44 -48h-63l-40 28v8l-11 4l-8 20l-44 55l-24 12l-31 -8l-24 -32q-16 -138 83 -158l71 8h115l24 -12v-12h12l4 -16v-87
l-16 -16l-210 -4l-4 -8l-44 -19l-27 -44q-12 -40 -8 -83v-349l-24 -31l-40 -16q-27 -8 -39 31v1165l4 16zM28 808q-16 -317 194 -554q206 -206 479 -230q317 -16 555 194q206 206 229 479q16 317 -194 555q-206 206 -479 230q-317 15 -555 -194q-206 -206 -229 -480z
M701 1501q186 8 325 -47l95 -44q186 -107 293 -293q99 -210 91 -309q8 -186 -47 -325l-44 -95q-107 -186 -293 -293q-210 -99 -309 -91q-186 -8 -325 48l-95 43q-186 107 -293 293q-99 210 -91 309q-8 186 47 325l44 95q107 186 293 293q210 99 309 91z" />
    <glyph glyph-name="exclamdown" unicode="&#xa1;" horiz-adv-x="721" 
d="M443 788q-229 -19 -265 155q0 128 45 183q64 37 138 37q192 -19 201 -183q-19 -137 -119 -192zM406 -300l-201 18q-36 37 -46 155l19 302q-19 348 9 439q36 46 146 55t183 -18q37 -37 37 -83q9 -649 -19 -823q-9 -54 -128 -45z" />
    <glyph glyph-name="copyright" unicode="&#xa9;" horiz-adv-x="1509" 
d="M758 1491q190 0 371 -97.5t282 -279t101 -378.5q0 -195 -99.5 -375t-279 -279.5t-375.5 -99.5t-375.5 99.5t-279.5 279.5t-100 375q0 197 101.5 378.5t282.5 279t371 97.5zM758 1366q-159 0 -309.5 -81.5t-235.5 -233t-85 -315.5q0 -163 83.5 -312.5t233.5 -233
t313 -83.5t313 83.5t233 233t83 312.5q0 164 -84.5 315.5t-235.5 233t-309 81.5zM703 1209q32 -10 184 0q153 -40 153 -103l-6 -122q0 -18 -58 -18q-171 47 -292 0q-82 -40 -127 -197q-12 -35 25 -163q51 -86 83 -104l115 -35q56 -17 240 41l33 -41q12 -99 -33 -151
q-62 -35 -235 -53h-82q-184 36 -197 53q-107 52 -165 151q-94 192 -70 226q-13 122 32 215q101 180 184 221q134 64 216 80z" />
    <glyph glyph-name="registered" unicode="&#xae;" horiz-adv-x="1430" 
d="M597 903l5 -93l29 -32q68 -6 91 16l34 59q-12 89 -69 98h-61zM623 1160q188 10 306 -66q115 -115 97 -163l-17 -137l-40 -22q-55 10 -67 0q-40 -55 -69 -65q-57 10 -91 -23v-49l29 -16l73 16q29 6 74 -60l97 -126l46 -44q-6 -11 39 -70q0 -50 -45 -56l-170 6l-74 50
q-35 43 -52 93l-74 72l-46 26l-11 -17l-11 -185q0 -45 -74 -45h-120q-28 12 -35 89q0 256 -26 468q10 72 0 252q10 44 44 50l148 5zM716 1366q-159 0 -309.5 -81.5t-235.5 -233t-85 -315.5q0 -163 83.5 -312.5t233.5 -233t313 -83.5t313 83.5t233 233t83 312.5
q0 164 -84.5 315.5t-235.5 233t-309 81.5zM716 1491q190 0 371 -97.5t282 -279t101 -378.5q0 -195 -99.5 -375t-279 -279.5t-375.5 -99.5t-375.5 99.5t-279.5 279.5t-100 375q0 197 101.5 378.5t282.5 279t371 97.5z" />
    <glyph glyph-name="questiondown" unicode="&#xbf;" horiz-adv-x="1217" 
d="M713 764h-73l-101 73q-64 83 -64 137l19 83l73 91l73 18q46 10 155 -27l73 -119q28 -46 -64 -201zM695 -296q-192 -19 -339 36l-36 156l-55 36l-64 -18l-37 82q-54 28 -45 101l9 100q46 46 55 137l82 92l119 73l64 64q18 110 146 110q192 18 229 -73l-9 -266l-28 -27
q-201 -9 -265 -128l-9 -82l46 -83l82 -18q46 0 146 110l238 18q73 -18 82 -73l-18 -91l-64 -101q-128 -165 -329 -155z" />
    <glyph glyph-name="bullet" unicode="&#x2022;" horiz-adv-x="717" 
d="M331 981q133 0 166 -46q67 -58 101 -173q10 -254 -246 -278q-143 35 -199 80l-34 151q-10 231 212 266z" />
    <glyph glyph-name="trademark" unicode="&#x2122;" horiz-adv-x="1128" 
d="M255 651v361h-158v63h399v-63h-160v-361h-81zM550 651v424h120l124 -338l119 338h118v-424h-75v356l-126 -356h-73l-132 361v-361h-75z" />
  </font>
</defs>
</svg>
